# xmcd
#
# Track frame offsets: 
#        150
#        26550
#        51484
#        76589
#        103954
#        121685
#        144356
#        165196
#        193299
#        215529
#        231520
#
# Disc length: 3413 seconds
#
# Revision: 0
# Processed by: cddbd v1.5.2PL0 Copyright (c) Steve Scherf et al.
# Submitted via: ExactAudioCopy v0.99pb5
#
DISCID=930d530b
DTITLE=Thirsty Perch Blues Band - Live At Grand Rapids Harley-Davidson
DYEAR=2011
DGENRE=Blues
TTITLE0=Had Enough
TTITLE1=Raining Love
TTITLE2=Rollin' Man - Bayou Queen
TTITLE3=Can't Have You
TTITLE4=New Attitude
TTITLE5=Judgement Day
TTITLE6=Done Told You Once
TTITLE7=Brush With The Blues
TTITLE8=Lucky In Love
TTITLE9=Crossroads
TTITLE10=Ride Til I'm Satisfied
EXTD=
EXTT0=
EXTT1=
EXTT2=
EXTT3=
EXTT4=
EXTT5=
EXTT6=
EXTT7=
EXTT8=
EXTT9=
EXTT10=
PLAYORDER=
